<?xml version="1.0" standalone="no"?>
<!DOCTYPE svg PUBLIC "-//W3C//DTD SVG 20010904//EN"
 "http://www.w3.org/TR/2001/REC-SVG-20010904/DTD/svg10.dtd">
<svg version="1.0" xmlns="http://www.w3.org/2000/svg"
 width="577.000000pt" height="272.000000pt" viewBox="0 0 577.000000 272.000000"
 preserveAspectRatio="xMidYMid meet">

<g transform="translate(0.000000,272.000000) scale(0.100000,-0.100000)"
fill="#000000" stroke="none">
<path d="M4307 2072 c-19 -21 -22 -48 -7 -57 7 -4 5 -14 -5 -28 -19 -27 -19
-42 1 -61 18 -19 75 -21 92 -4 15 15 16 60 1 75 -8 8 -8 13 0 17 17 11 13 41
-7 59 -24 22 -55 21 -75 -1z m61 -30 c4 -28 -24 -40 -45 -19 -14 13 -14 19 -3
32 18 22 44 15 48 -13z m0 -61 c8 -5 12 -17 10 -27 -4 -25 -56 -32 -64 -10
-14 36 20 59 54 37z"/>
<path d="M4450 2070 c-24 -24 -25 -48 -4 -79 14 -19 23 -22 50 -18 37 6 39 5
24 -24 -13 -23 -43 -25 -60 -4 -7 8 -17 12 -22 9 -16 -10 24 -44 53 -44 38 0
59 33 59 92 0 53 -24 88 -60 88 -11 0 -29 -9 -40 -20z m64 -16 c19 -19 20 -25
3 -48 -18 -24 -51 -17 -55 12 -3 23 13 52 29 52 4 0 15 -7 23 -16z"/>
<path d="M4637 2084 c-13 -14 6 -24 44 -24 l39 0 -35 -70 c-38 -76 -40 -80
-25 -80 10 0 90 151 90 170 0 11 -102 14 -113 4z"/>
<path d="M4790 2070 c-24 -24 -25 -48 -4 -79 14 -19 23 -22 50 -18 36 6 45 -8
22 -31 -17 -17 -38 -15 -60 5 -15 13 -18 14 -18 2 0 -44 70 -54 96 -14 24 37
21 115 -6 137 -29 23 -55 23 -80 -2z m61 -10 c38 -21 12 -79 -31 -65 -22 7
-27 44 -8 63 15 15 15 15 39 2z"/>
<path d="M4942 2081 c-8 -5 -12 -21 -10 -37 2 -23 9 -30 30 -32 22 -3 29 2 34
22 10 41 -21 68 -54 47z m33 -34 c0 -26 -20 -25 -23 2 -3 16 1 22 10 19 7 -3
13 -12 13 -21z"/>
<path d="M5000 2009 c-61 -90 -66 -99 -52 -99 9 0 122 159 122 173 0 20 -20
-1 -70 -74z"/>
<path d="M5018 1965 c-8 -19 -8 -28 2 -40 30 -36 83 3 60 45 -15 28 -48 25
-62 -5z m42 -20 c0 -14 -4 -25 -9 -25 -12 0 -23 29 -15 41 10 18 24 9 24 -16z"/>
<path d="M4580 1925 c0 -8 7 -15 15 -15 8 0 15 7 15 15 0 8 -7 15 -15 15 -8 0
-15 -7 -15 -15z"/>
<path d="M4283 1243 c-7 -2 -13 -12 -13 -20 0 -13 3 -13 15 -3 13 11 15 5 15
-44 0 -31 5 -56 10 -56 6 0 10 28 10 65 0 65 -4 72 -37 58z"/>
<path d="M4400 1225 c0 -37 3 -40 30 -40 18 0 26 -6 28 -22 3 -17 -2 -23 -17
-23 -11 0 -23 5 -26 10 -4 6 -11 8 -16 4 -15 -9 10 -34 35 -34 53 0 65 65 16
83 -36 14 -39 27 -6 27 14 0 28 5 31 10 4 6 -10 10 -34 10 -37 0 -41 -2 -41
-25z"/>
<path d="M4190 1216 c0 -7 -9 -16 -21 -19 -23 -6 -17 -27 7 -27 8 0 14 -7 14
-15 0 -8 5 -15 10 -15 6 0 10 7 10 15 0 8 7 15 15 15 8 0 15 7 15 15 0 8 -7
15 -15 15 -8 0 -15 7 -15 15 0 8 -4 15 -10 15 -5 0 -10 -6 -10 -14z"/>
<path d="M4903 1218 c-5 -7 -9 -33 -8 -58 0 -45 0 -45 35 -45 34 0 35 1 35 40
0 22 -3 48 -8 58 -9 20 -40 23 -54 5z m47 -23 c0 -8 -9 -15 -20 -15 -11 0 -20
7 -20 15 0 8 9 15 20 15 11 0 20 -7 20 -15z m-2 -52 c-2 -10 -10 -18 -18 -18
-8 0 -16 8 -18 18 -2 12 3 17 18 17 15 0 20 -5 18 -17z"/>
<path d="M5003 1218 c-6 -7 -10 -33 -9 -58 1 -40 4 -45 26 -48 43 -4 52 9 43
64 -7 39 -13 50 -29 52 -11 2 -25 -3 -31 -10z m45 -20 c-7 -19 -38 -22 -38 -4
0 10 9 16 21 16 12 0 19 -5 17 -12z m0 -55 c-4 -20 -18 -26 -37 -14 -18 12 -5
31 20 31 14 0 19 -6 17 -17z"/>
<path d="M5136 1208 c-31 -45 -11 -103 35 -96 16 2 25 10 27 26 4 30 -16 55
-40 48 -12 -3 -18 0 -15 7 2 7 16 11 31 10 17 -1 26 2 23 10 -7 22 -44 19 -61
-5z m48 -47 c9 -14 -4 -41 -19 -41 -18 0 -28 17 -21 35 6 17 32 20 40 6z"/>
<path d="M5234 1216 c-9 -24 4 -49 21 -42 20 7 19 0 -6 -35 -11 -16 -16 -29
-11 -29 11 0 85 110 79 117 -3 3 -14 -8 -23 -23 l-18 -27 -6 23 c-7 28 -28 38
-36 16z m26 -17 c0 -5 -4 -9 -10 -9 -5 0 -10 7 -10 16 0 8 5 12 10 9 6 -3 10
-10 10 -16z"/>
<path d="M5284 1145 c-8 -20 4 -35 27 -35 14 0 19 7 19 25 0 18 -5 25 -20 25
-11 0 -23 -7 -26 -15z m36 -10 c0 -8 -4 -15 -10 -15 -5 0 -10 7 -10 15 0 8 5
15 10 15 6 0 10 -7 10 -15z"/>
<path d="M4350 1130 c0 -5 5 -10 10 -10 6 0 10 5 10 10 0 6 -4 10 -10 10 -5 0
-10 -4 -10 -10z"/>
<path d="M5090 1120 c0 -5 5 -10 10 -10 6 0 10 5 10 10 0 6 -4 10 -10 10 -5 0
-10 -4 -10 -10z"/>
</g>
</svg>
